<svg version="1.1" id="Layer_1" xmlns="http://www.w3.org/2000/svg" xmlns:xlink="http://www.w3.org/1999/xlink" x="0px" y="0px"
	 width="100%" viewBox="0 0 735 253" enable-background="new 0 0 735 253" xml:space="preserve">
<path fill="#FEFEFE" opacity="1.000000" stroke="none" 
	d="
M189.000000,0.999999 
	C371.284180,1.000000 553.568359,1.000000 735.926270,1.000000 
	C735.926270,85.261391 735.926270,169.522858 735.926270,253.892166 
	C491.000031,253.892166 246.000015,253.892166 1.000000,253.892166 
	C1.000000,233.919312 1.000000,213.924667 1.326592,193.644272 
	C6.953078,219.305908 29.644659,235.926468 56.491714,235.287277 
	C97.631882,234.307800 138.812561,235.056549 179.975983,235.018570 
	C209.207916,234.991592 231.479279,213.471161 231.708405,184.173264 
	C232.051208,140.346039 231.982224,96.513069 231.726334,52.684658 
	C231.588715,29.116564 218.030029,10.810778 196.303879,3.510067 
	C193.863647,2.690071 191.434357,1.837475 189.000000,0.999999 
M319.722687,111.837555 
	C316.629364,103.334511 312.978119,95.232643 302.733582,91.036476 
	C306.128937,89.514557 307.942383,88.740860 309.722565,87.897026 
	C317.977112,83.984306 324.000977,78.063499 325.894958,68.851418 
	C330.370209,47.084225 318.203186,30.282707 296.066132,29.075010 
	C277.803253,28.078665 259.458374,28.583471 241.149628,28.447372 
	C240.868011,28.445278 240.584076,28.755583 240.158081,29.003361 
	C240.158081,69.140236 240.158081,109.355087 240.158081,149.652267 
	C248.166260,149.652267 255.880234,149.652267 263.916199,149.652267 
	C263.916199,141.001892 263.916199,132.698441 263.916199,124.395004 
	C263.916199,116.143463 263.916199,107.891922 263.916199,99.274284 
	C268.124603,99.274284 271.595490,99.246346 275.065765,99.279274 
	C287.950562,99.401535 292.009003,102.369377 296.130371,114.763222 
	C299.644653,125.331352 303.030212,135.943268 306.673340,146.466354 
	C307.153503,147.853394 308.781250,149.788666 309.947235,149.838501 
	C317.212860,150.149139 324.498383,149.995117 332.421539,149.995117 
	C328.126129,137.113190 324.036499,124.848328 319.722687,111.837555 
M420.837372,67.675293 
	C412.795685,59.208817 402.415619,57.026794 391.328644,56.492306 
	C369.931366,55.460781 352.146820,68.151665 347.557129,88.906265 
	C345.931366,96.257881 345.773132,104.132378 346.191071,111.699348 
	C347.320068,132.141342 359.774475,146.870422 379.514923,150.397049 
	C387.372040,151.800720 395.819214,151.645645 403.748901,150.490997 
	C415.672302,148.754837 423.979614,141.297836 429.631622,130.121582 
	C424.756470,126.987854 420.247467,123.910583 415.521698,121.213058 
	C414.648010,120.714348 412.183472,121.306084 411.663452,122.144875 
	C406.000885,131.278595 397.313843,132.897446 387.710449,131.887772 
	C376.151428,130.672516 368.271667,120.461601 370.313354,109.254837 
	C372.034424,109.254837 373.843628,109.254860 375.652863,109.254837 
	C392.136078,109.254631 408.620209,109.330093 425.101166,109.137093 
	C426.747986,109.117805 429.736572,107.562073 429.806702,106.558952 
	C430.755157,92.991386 430.934235,79.477760 420.837372,67.675293 
M630.730896,132.020050 
	C630.619995,131.119217 630.840881,129.727127 630.346985,129.393570 
	C625.451233,126.087662 620.437195,122.956917 615.562317,119.844070 
	C605.544495,131.915680 595.309326,135.131836 583.707642,130.313538 
	C575.764587,127.014687 571.177734,118.964935 572.085449,109.254845 
	C573.819519,109.254845 575.609985,109.254868 577.400452,109.254852 
	C593.882751,109.254707 610.365784,109.173676 626.846863,109.316261 
	C630.560608,109.348389 632.442627,108.447052 632.185303,104.330978 
	C631.895020,99.687653 632.252808,95.004044 631.967529,90.360138 
	C630.897583,72.941299 620.789490,61.265713 603.692627,57.714615 
	C600.293823,57.008659 596.780212,56.730034 593.304016,56.542027 
	C572.017029,55.390724 554.705261,67.823814 549.665405,88.445282 
	C548.225525,94.336548 547.874939,100.633842 547.955444,106.732666 
	C548.302673,133.041824 561.885986,148.492203 587.919128,151.445923 
	C605.407410,153.430176 620.722168,149.108887 630.730896,132.020050 
M656.187866,34.971889 
	C652.868286,42.301514 653.498779,49.898270 654.804382,58.117481 
	C650.602905,58.117481 646.529053,58.117481 642.428223,58.117481 
	C642.428223,64.576881 642.428223,70.441452 642.428223,76.774475 
	C646.736511,76.774475 650.659058,76.774475 655.196777,76.774475 
	C655.196777,101.449638 655.196777,125.649498 655.196777,149.715912 
	C663.109070,149.715912 670.379089,149.715912 678.046204,149.715912 
	C678.046204,137.473602 678.046204,125.513283 678.046204,113.552956 
	C678.046204,101.432304 678.046204,89.311646 678.046204,76.600662 
	C686.969360,76.600662 695.378113,76.600662 703.761597,76.600662 
	C703.761597,70.119934 703.761597,64.246223 703.761597,58.101871 
	C699.682983,58.101871 696.035034,58.102081 692.387085,58.101814 
	C688.721619,58.101547 685.048523,58.234142 681.394775,58.027020 
	C680.137634,57.955757 678.312378,57.379372 677.794861,56.450050 
	C673.538025,48.805077 678.784119,39.333561 687.457825,38.865376 
	C689.938110,38.731499 692.479492,38.804390 694.925842,39.198318 
	C698.040100,39.699787 702.447510,42.210640 703.852356,41.005341 
	C706.132874,39.048840 706.432861,34.778912 707.554688,31.480726 
	C707.822266,30.693991 707.911255,29.823444 708.292053,29.102087 
	C710.259155,25.375868 708.412659,23.597742 705.049011,22.528149 
	C692.925232,18.672895 680.614014,17.991859 668.977844,23.323841 
	C664.173218,25.525427 660.668762,30.564552 656.187866,34.971889 
M450.321259,131.828735 
	C453.532227,151.815887 471.547089,153.630722 484.266174,150.655029 
	C485.392456,150.391525 486.982300,148.486435 486.928009,147.416260 
	C486.669403,142.318069 485.916565,137.244965 485.352570,132.277679 
	C473.045776,131.359100 472.968079,131.275345 472.967682,119.181313 
	C472.966675,88.517914 472.967316,57.854523 472.967316,27.191126 
	C472.967316,25.408205 472.967316,23.625282 472.967316,21.660648 
	C465.034607,21.660648 457.642456,21.660648 450.181427,21.660648 
	C450.181427,58.325310 450.181427,94.638596 450.321259,131.828735 
M503.112915,136.490387 
	C503.112915,140.912918 503.112915,145.335449 503.112915,149.752014 
	C511.128113,149.752014 518.393860,149.752014 525.777222,149.752014 
	C525.777222,119.172699 525.777222,88.845535 525.777222,58.442078 
	C518.136658,58.442078 510.891327,58.442078 503.113007,58.442078 
	C503.113007,84.314644 503.113007,109.904427 503.112915,136.490387 
M257.778351,209.680649 
	C263.227020,208.614075 267.974792,206.312042 270.697113,201.243484 
	C274.093323,194.920135 274.159241,188.116760 272.476868,181.332855 
	C270.803101,174.583679 266.363586,170.015900 259.525879,169.047546 
	C252.381287,168.035736 245.081955,168.116608 237.641144,167.708328 
	C237.641144,182.311172 237.641144,196.020401 237.641144,209.825516 
	C244.290451,209.825516 250.600204,209.825516 257.778351,209.680649 
M407.711487,206.100418 
	C411.695801,200.101471 411.882477,193.576828 410.013031,186.940750 
	C408.058014,180.000946 402.376984,176.583725 395.444427,178.132645 
	C393.283783,178.615372 391.308960,179.929565 388.617950,181.149170 
	C388.617950,175.948227 388.617950,171.075699 388.617950,166.144897 
	C385.608765,166.144897 383.222839,166.144897 380.759460,166.144897 
	C380.759460,180.903000 380.759460,195.300522 380.759460,210.019485 
	C383.934631,209.300446 387.760071,212.102615 389.260345,207.215897 
	C396.646179,212.036331 401.053711,211.898743 407.711487,206.100418 
M533.843140,206.592987 
	C534.300598,212.982330 538.883057,208.839951 541.718262,210.107437 
	C541.718262,195.088623 541.718262,180.570541 541.718262,166.032776 
	C539.118958,166.032776 536.847839,166.032776 533.987244,166.032776 
	C533.987244,171.234482 533.987244,176.228653 533.987244,181.603210 
	C523.282043,174.025940 512.919250,178.836975 511.848877,191.270615 
	C511.622772,193.896927 511.670898,196.609360 512.058960,199.212570 
	C512.784668,204.080643 515.063538,208.113220 519.964355,209.835419 
	C524.940186,211.583984 529.468994,210.685150 533.843140,206.592987 
M368.385834,179.948990 
	C362.530914,176.216003 357.131470,177.566681 351.459167,182.310883 
	C351.459167,176.345322 351.459167,171.260010 351.459167,166.162964 
	C348.572754,166.162964 346.190704,166.162964 343.757751,166.162964 
	C343.757751,180.931641 343.757751,195.319138 343.757751,209.662918 
	C346.478424,209.662918 348.869110,209.662918 351.729919,209.662918 
	C351.729919,203.518082 351.526337,197.711700 351.791809,191.926834 
	C352.020508,186.943237 354.604248,184.569977 358.854980,184.709778 
	C363.899811,184.875656 363.979858,188.485779 363.982391,192.136246 
	C363.986511,198.052475 363.983521,203.968704 363.983521,209.775162 
	C366.985840,209.775162 369.260742,209.775162 371.874084,209.775162 
	C371.874084,202.101089 372.097137,194.650955 371.741180,187.228577 
	C371.631195,184.934921 369.944672,182.716904 368.385834,179.948990 
M565.959045,206.313934 
	C565.973145,213.695602 571.120056,208.462006 574.267944,210.354385 
	C574.267944,204.595886 574.267944,199.697525 574.267944,194.231247 
	C577.753235,194.231247 580.724182,194.376877 583.676208,194.202957 
	C591.410156,193.747299 595.886658,189.312668 596.137024,182.052521 
	C596.403625,174.317978 592.391357,169.041412 584.754150,168.332748 
	C578.697571,167.770752 572.547180,168.219574 565.958801,168.219574 
	C565.958801,180.815598 565.958801,193.084549 565.959045,206.313934 
M513.654724,47.148567 
	C515.786438,46.908897 518.031616,47.016937 520.029053,46.365616 
	C526.527649,44.246643 530.152405,37.571045 528.705383,30.893681 
	C527.227234,24.073004 520.649353,19.522970 513.331421,20.259434 
	C505.993286,20.997925 501.152649,25.832247 500.813965,32.760529 
	C500.420135,40.816143 504.516876,45.720585 513.654724,47.148567 
M618.556885,196.011169 
	C622.488892,196.011169 626.420959,196.011169 630.215637,196.011169 
	C631.768005,186.343369 628.487793,180.044785 621.459473,178.285446 
	C613.049011,176.180130 605.361145,179.892868 602.657410,187.365631 
	C599.486572,196.129501 602.627319,205.795395 609.757507,209.052292 
	C616.755920,212.248978 627.502869,210.817688 630.154724,203.010956 
	C628.502930,201.947632 626.763428,200.827820 624.989746,199.686081 
	C622.047913,203.384720 618.559631,205.193085 614.656372,203.191467 
	C612.419250,202.044250 610.973755,199.353271 609.171814,197.357300 
	C609.522278,196.908585 609.872742,196.459885 610.223206,196.011169 
	C612.679321,196.011169 615.135498,196.011169 618.556885,196.011169 
M698.521179,198.339630 
	C698.431213,194.352036 698.761597,190.292435 698.095337,186.403549 
	C697.687927,184.025436 696.271301,181.220184 694.401123,179.805054 
	C688.758423,175.535294 677.795471,177.923828 673.492615,184.042511 
	C674.473816,185.414368 675.495789,186.843307 676.208923,187.840424 
	C679.757935,186.494049 682.731506,184.924072 685.882812,184.376694 
	C687.241699,184.140640 688.968140,186.020752 690.527649,186.939529 
	C689.393860,188.162323 688.477966,189.912430 687.077942,190.490784 
	C684.660645,191.489349 681.881042,191.567657 679.363281,192.374832 
	C673.565491,194.233505 671.287903,198.366989 672.777344,203.889297 
	C674.088684,208.751694 678.665833,211.679321 684.015320,210.405991 
	C686.730164,209.759766 689.163025,207.928772 690.794006,207.103561 
	C693.329712,208.237289 695.375427,209.600861 697.591248,209.986145 
	C699.089661,210.246689 700.827515,209.130188 702.458313,208.629639 
	C701.618896,206.986206 700.690735,205.380676 699.967468,203.687637 
	C699.361267,202.268539 698.994080,200.747299 698.521179,198.339630 
M426.918091,209.864655 
	C428.222137,210.115341 429.515900,210.466980 430.831848,210.600571 
	C440.381775,211.570068 447.447906,205.287491 447.926178,195.447021 
	C448.441803,184.839386 442.580780,178.041138 432.796814,177.898148 
	C424.678558,177.779495 419.108246,181.825317 417.314758,189.143066 
	C415.125671,198.074982 418.437500,205.712997 426.918091,209.864655 
M645.595459,202.401352 
	C645.638611,198.904068 645.513123,195.394592 645.765076,191.912415 
	C646.128418,186.890076 648.530945,184.601547 652.856445,184.699142 
	C657.966248,184.814438 657.992310,188.428513 657.987671,192.088837 
	C657.980042,198.017838 657.985535,203.946838 657.985535,209.771240 
	C660.989075,209.771240 663.267578,209.771240 665.985718,209.771240 
	C665.985718,208.090439 665.992676,206.625244 665.984558,205.160141 
	C665.951416,199.163361 666.295227,193.134018 665.786743,187.177582 
	C665.052002,178.571182 655.553284,174.718155 648.573242,179.932693 
	C647.548767,180.698074 646.659668,181.644623 645.512512,182.684448 
	C645.154419,181.024979 644.868713,179.701218 644.637878,178.631393 
	C642.097656,178.631393 640.016052,178.631393 637.760681,178.631393 
	C637.760681,189.228180 637.760681,199.466248 637.760681,209.653076 
	C640.476196,209.653076 642.873779,209.653076 645.595154,209.653076 
	C645.595154,207.316925 645.595154,205.338501 645.595459,202.401352 
M301.469666,179.849503 
	C293.587952,176.106277 285.881927,177.447952 280.026093,183.744461 
	C281.097504,185.268082 282.198547,186.833862 282.905426,187.839096 
	C286.580566,186.459167 289.559814,184.907913 292.712891,184.363937 
	C294.022430,184.138000 295.703094,186.063156 297.214996,187.010117 
	C296.079681,188.219254 295.159271,189.976456 293.764313,190.523499 
	C290.858368,191.663025 287.614410,191.921036 284.668579,192.983047 
	C280.572083,194.459869 278.761078,197.710602 279.145935,202.009155 
	C279.544617,206.462463 281.829010,210.020813 286.407013,210.128098 
	C290.339874,210.220276 294.310089,208.719742 298.396851,207.896683 
	C300.593475,208.516495 303.367371,209.508652 306.227142,209.978516 
	C307.084900,210.119476 308.959229,208.853256 309.004181,208.145142 
	C309.091949,206.762329 308.341919,205.260544 307.710541,203.915131 
	C306.979248,202.356827 305.413757,200.975067 305.250671,199.408371 
	C304.873688,195.787521 305.503601,192.048065 304.999268,188.458694 
	C304.606354,185.662506 303.118896,183.020111 301.469666,179.849503 
M453.780090,197.623779 
	C452.299835,202.214554 453.007446,206.259384 457.185303,209.053848 
	C461.588135,211.998779 466.401550,211.089096 470.926056,207.483612 
	C474.594238,208.517380 477.369781,209.508804 480.230957,209.978180 
	C481.087524,210.118683 482.839111,208.942123 483.016388,208.118393 
	C483.285583,206.867615 482.732941,204.292542 482.191132,204.196945 
	C478.021820,203.461319 479.262299,200.342255 479.164520,197.916656 
	C479.017151,194.262009 479.733337,190.437378 478.870148,186.988419 
	C478.147095,184.099396 476.290405,180.639694 473.879730,179.196182 
	C467.921173,175.628235 458.815735,178.166718 454.117920,183.895447 
	C455.122528,185.320007 456.154968,186.784012 456.860870,187.784973 
	C460.497284,186.475052 463.630493,184.984604 466.928619,184.346542 
	C468.150604,184.110138 469.759796,185.875427 471.192413,186.727829 
	C470.152740,187.998337 469.335449,189.637161 468.011353,190.436432 
	C466.669983,191.246185 464.673615,190.916733 463.236145,191.632507 
	C460.083313,193.202484 457.102386,195.117691 453.780090,197.623779 
M320.567871,188.062439 
	C321.355408,183.027527 324.649048,182.614319 332.200562,186.792557 
	C333.463562,185.402298 334.776062,183.957581 336.072479,182.530579 
	C331.749969,177.909637 324.930878,176.473282 318.997925,178.779236 
	C315.257904,180.232834 312.994110,182.763260 312.815735,186.970673 
	C312.626251,191.440445 314.848816,194.253891 318.802582,195.749954 
	C321.280029,196.687393 324.030670,196.958710 326.419098,198.052261 
	C327.625793,198.604767 328.300049,200.320084 329.215057,201.509644 
	C327.961334,202.358658 326.540527,204.092834 325.484650,203.893585 
	C322.082306,203.251495 318.814453,201.896927 315.095306,200.687103 
	C314.216187,201.692230 312.934845,203.157227 311.707581,204.560410 
	C315.780609,209.950165 322.255676,211.909256 329.328003,210.032822 
	C333.958282,208.804306 336.903992,206.070435 337.137878,200.973175 
	C337.376587,195.770676 334.569885,193.019150 329.907349,191.605850 
	C326.919952,190.700317 323.969360,189.673264 320.567871,188.062439 
M717.583679,203.747665 
	C716.946228,202.028137 715.818054,200.325302 715.758972,198.586105 
	C715.539185,192.120544 715.670959,185.643021 715.670837,179.169998 
	C715.670715,174.777069 715.670776,170.384140 715.670776,166.103607 
	C712.480103,166.103607 710.097351,166.103607 707.607605,166.103607 
	C707.607605,178.297913 707.373535,190.082657 707.691101,201.852524 
	C707.897888,209.513992 713.359375,212.511353 720.931213,209.006210 
	C720.112244,207.322021 719.267090,205.583969 717.583679,203.747665 
M496.203705,180.711334 
	C495.018982,175.680130 491.476044,179.357559 488.810852,178.267410 
	C488.810852,189.105591 488.810852,199.426270 488.810852,209.835632 
	C491.471039,209.835632 493.759186,209.835632 496.606995,209.835632 
	C496.606995,205.384598 496.577209,201.107773 496.613007,196.831482 
	C496.693024,187.265610 497.754639,186.108017 507.919678,185.264053 
	C507.646454,183.017670 507.370667,180.750473 507.094879,178.483276 
	C504.322052,179.084229 501.538757,179.642151 498.782379,180.310898 
	C497.891174,180.527100 497.070648,181.034424 496.203705,180.711334 
z"/>
<path fill="#21A0D8" opacity="1.000000" stroke="none" 
	d="
M188.531342,0.999999 
	C191.434357,1.837475 193.863647,2.690071 196.303879,3.510067 
	C218.030029,10.810778 231.588715,29.116564 231.726334,52.684658 
	C231.982224,96.513069 232.051208,140.346039 231.708405,184.173264 
	C231.479279,213.471161 209.207916,234.991592 179.975983,235.018570 
	C138.812561,235.056549 97.631882,234.307800 56.491714,235.287277 
	C29.644659,235.926468 6.953078,219.305908 1.326592,193.179260 
	C1.000000,143.312439 1.000000,93.624878 1.327713,43.299946 
	C6.466481,23.448645 17.555042,9.845016 36.704037,3.444481 
	C39.136608,2.631395 41.568039,1.814910 44.000000,1.000000 
	C92.020897,1.000000 140.041794,1.000000 188.531342,0.999999 
M142.237091,173.285828 
	C143.877594,175.918900 145.518082,178.551987 147.688614,182.035797 
	C143.526703,182.035797 140.321838,182.035797 136.810791,182.035797 
	C136.929138,184.373779 137.016006,186.090134 137.114624,188.038223 
	C145.953369,188.038223 154.270676,188.038223 162.587967,188.038223 
	C171.016525,188.038223 179.445068,188.038223 187.805191,188.038223 
	C187.805191,185.681473 187.805191,184.071274 187.805191,181.993607 
	C185.615433,181.993607 183.623795,181.768188 181.701630,182.037888 
	C176.854889,182.717896 173.997543,180.922867 171.377289,176.565063 
	C160.825928,159.016815 149.772125,141.770813 138.915634,124.405838 
	C136.650070,120.782074 134.434280,117.127197 132.051086,113.251709 
	C135.871185,112.793579 139.164352,112.526970 142.412384,111.988228 
	C163.013077,108.571228 179.125839,89.533218 178.711655,69.176811 
	C178.249832,46.478767 162.155273,27.093124 140.234329,26.087467 
	C111.130966,24.752308 81.933197,25.475014 52.775990,25.313257 
	C48.959080,25.292082 49.581795,27.483240 50.300823,30.307716 
	C54.281116,30.307716 58.046883,30.307716 61.910088,30.307716 
	C61.910088,56.329945 61.910088,81.876152 61.910088,107.886169 
	C57.766285,107.886169 53.999153,107.886169 50.040794,107.886169 
	C50.040794,109.453644 49.872589,111.487312 50.065609,111.522202 
	C53.998821,112.233002 57.973362,112.715164 61.939713,113.243004 
	C61.939713,136.176071 61.939713,158.902130 61.939713,182.042480 
	C57.821365,182.042480 54.043377,182.042480 50.045578,182.042480 
	C50.045578,184.174301 50.045578,185.887344 50.045578,187.760605 
	C67.086922,187.760605 83.834084,187.760605 100.651031,187.760605 
	C100.651031,185.759338 100.651031,184.040100 100.651031,181.766510 
	C96.272614,181.766510 92.212944,181.766510 88.240715,181.766510 
	C88.240715,158.593567 88.240715,135.981522 88.240715,112.860046 
	C92.096603,112.860046 95.745987,113.143044 99.330818,112.783112 
	C103.173180,112.397316 105.247017,113.883461 107.243309,117.137863 
	C118.647705,135.729630 130.314713,154.160309 142.237091,173.285828 
z"/>
<path fill="#FCFEFE" opacity="1.000000" stroke="none" 
	d="
M43.531342,1.000000 
	C41.568039,1.814910 39.136608,2.631395 36.704037,3.444481 
	C17.555042,9.845016 6.466481,23.448645 1.327713,42.831287 
	C1.000000,29.072454 1.000000,15.144910 1.000000,1.000000 
	C15.020146,1.000000 29.041414,1.000000 43.531342,1.000000 
z"/>
<path fill="#22A1D8" opacity="1.000000" stroke="none" 
	d="
M319.834778,112.210510 
	C324.036499,124.848328 328.126129,137.113190 332.421539,149.995117 
	C324.498383,149.995117 317.212860,150.149139 309.947235,149.838501 
	C308.781250,149.788666 307.153503,147.853394 306.673340,146.466354 
	C303.030212,135.943268 299.644653,125.331352 296.130371,114.763222 
	C292.009003,102.369377 287.950562,99.401535 275.065765,99.279274 
	C271.595490,99.246346 268.124603,99.274284 263.916199,99.274284 
	C263.916199,107.891922 263.916199,116.143463 263.916199,124.395004 
	C263.916199,132.698441 263.916199,141.001892 263.916199,149.652267 
	C255.880234,149.652267 248.166260,149.652267 240.158081,149.652267 
	C240.158081,109.355087 240.158081,69.140236 240.158081,29.003361 
	C240.584076,28.755583 240.868011,28.445278 241.149628,28.447372 
	C259.458374,28.583471 277.803253,28.078665 296.066132,29.075010 
	C318.203186,30.282707 330.370209,47.084225 325.894958,68.851418 
	C324.000977,78.063499 317.977112,83.984306 309.722565,87.897026 
	C307.942383,88.740860 306.128937,89.514557 302.733582,91.036476 
	C312.978119,95.232643 316.629364,103.334511 319.834778,112.210510 
M289.442108,47.825874 
	C281.034119,47.825874 272.626099,47.825874 264.265015,47.825874 
	C264.265015,58.721325 264.265015,69.290672 264.265015,80.139641 
	C272.250549,80.139641 279.890289,80.281578 287.522491,80.103409 
	C296.881470,79.884933 302.342346,74.970879 302.996765,66.550323 
	C303.849213,55.581097 300.034790,49.987026 289.442108,47.825874 
z"/>
<path fill="#23A1D8" opacity="1.000000" stroke="none" 
	d="
M421.068756,67.949310 
	C430.934235,79.477760 430.755157,92.991386 429.806702,106.558952 
	C429.736572,107.562073 426.747986,109.117805 425.101166,109.137093 
	C408.620209,109.330093 392.136078,109.254631 375.652863,109.254837 
	C373.843628,109.254860 372.034424,109.254837 370.313354,109.254837 
	C368.271667,120.461601 376.151428,130.672516 387.710449,131.887772 
	C397.313843,132.897446 406.000885,131.278595 411.663452,122.144875 
	C412.183472,121.306084 414.648010,120.714348 415.521698,121.213058 
	C420.247467,123.910583 424.756470,126.987854 429.631622,130.121582 
	C423.979614,141.297836 415.672302,148.754837 403.748901,150.490997 
	C395.819214,151.645645 387.372040,151.800720 379.514923,150.397049 
	C359.774475,146.870422 347.320068,132.141342 346.191071,111.699348 
	C345.773132,104.132378 345.931366,96.257881 347.557129,88.906265 
	C352.146820,68.151665 369.931366,55.460781 391.328644,56.492306 
	C402.415619,57.026794 412.795685,59.208817 421.068756,67.949310 
M371.513916,87.270706 
	C370.987396,89.428200 370.460907,91.585693 369.865906,94.023811 
	C382.896851,94.023811 395.275513,94.023811 407.621063,94.023811 
	C408.613617,84.905411 404.706055,77.969406 397.391632,75.525352 
	C386.542450,71.900192 376.751740,76.125542 371.513916,87.270706 
z"/>
<path fill="#23A1D8" opacity="1.000000" stroke="none" 
	d="
M630.537842,132.336655 
	C620.722168,149.108887 605.407410,153.430176 587.919128,151.445923 
	C561.885986,148.492203 548.302673,133.041824 547.955444,106.732666 
	C547.874939,100.633842 548.225525,94.336548 549.665405,88.445282 
	C554.705261,67.823814 572.017029,55.390724 593.304016,56.542027 
	C596.780212,56.730034 600.293823,57.008659 603.692627,57.714615 
	C620.789490,61.265713 630.897583,72.941299 631.967529,90.360138 
	C632.252808,95.004044 631.895020,99.687653 632.185303,104.330978 
	C632.442627,108.447052 630.560608,109.348389 626.846863,109.316261 
	C610.365784,109.173676 593.882751,109.254707 577.400452,109.254852 
	C575.609985,109.254868 573.819519,109.254845 572.085449,109.254845 
	C571.177734,118.964935 575.764587,127.014687 583.707642,130.313538 
	C595.309326,135.131836 605.544495,131.915680 615.562317,119.844070 
	C620.437195,122.956917 625.451233,126.087662 630.346985,129.393570 
	C630.840881,129.727127 630.619995,131.119217 630.537842,132.336655 
M581.063232,77.342628 
	C575.266479,81.270767 572.916687,87.039772 571.982971,93.940582 
	C584.821167,93.940582 597.335205,93.940582 609.833069,93.940582 
	C610.285950,83.605713 605.859192,76.125519 597.687195,75.259377 
	C592.488098,74.708328 587.058716,76.329788 581.063232,77.342628 
z"/>
<path fill="#22A1D8" opacity="1.000000" stroke="none" 
	d="
M656.380371,34.642502 
	C660.668762,30.564552 664.173218,25.525427 668.977844,23.323841 
	C680.614014,17.991859 692.925232,18.672895 705.049011,22.528149 
	C708.412659,23.597742 710.259155,25.375868 708.292053,29.102087 
	C707.911255,29.823444 707.822266,30.693991 707.554688,31.480726 
	C706.432861,34.778912 706.132874,39.048840 703.852356,41.005341 
	C702.447510,42.210640 698.040100,39.699787 694.925842,39.198318 
	C692.479492,38.804390 689.938110,38.731499 687.457825,38.865376 
	C678.784119,39.333561 673.538025,48.805077 677.794861,56.450050 
	C678.312378,57.379372 680.137634,57.955757 681.394775,58.027020 
	C685.048523,58.234142 688.721619,58.101547 692.387085,58.101814 
	C696.035034,58.102081 699.682983,58.101871 703.761597,58.101871 
	C703.761597,64.246223 703.761597,70.119934 703.761597,76.600662 
	C695.378113,76.600662 686.969360,76.600662 678.046204,76.600662 
	C678.046204,89.311646 678.046204,101.432304 678.046204,113.552956 
	C678.046204,125.513283 678.046204,137.473602 678.046204,149.715912 
	C670.379089,149.715912 663.109070,149.715912 655.196777,149.715912 
	C655.196777,125.649498 655.196777,101.449638 655.196777,76.774475 
	C650.659058,76.774475 646.736511,76.774475 642.428223,76.774475 
	C642.428223,70.441452 642.428223,64.576881 642.428223,58.117481 
	C646.529053,58.117481 650.602905,58.117481 654.804382,58.117481 
	C653.498779,49.898270 652.868286,42.301514 656.380371,34.642502 
z"/>
<path fill="#22A1D8" opacity="1.000000" stroke="none" 
	d="
M450.251343,131.390305 
	C450.181427,94.638596 450.181427,58.325310 450.181427,21.660648 
	C457.642456,21.660648 465.034607,21.660648 472.967316,21.660648 
	C472.967316,23.625282 472.967316,25.408205 472.967316,27.191126 
	C472.967316,57.854523 472.966675,88.517914 472.967682,119.181313 
	C472.968079,131.275345 473.045776,131.359100 485.352570,132.277679 
	C485.916565,137.244965 486.669403,142.318069 486.928009,147.416260 
	C486.982300,148.486435 485.392456,150.391525 484.266174,150.655029 
	C471.547089,153.630722 453.532227,151.815887 450.251343,131.390305 
z"/>
<path fill="#23A1D8" opacity="1.000000" stroke="none" 
	d="
M503.112976,135.992294 
	C503.113007,109.904427 503.113007,84.314644 503.113007,58.442078 
	C510.891327,58.442078 518.136658,58.442078 525.777222,58.442078 
	C525.777222,88.845535 525.777222,119.172699 525.777222,149.752014 
	C518.393860,149.752014 511.128113,149.752014 503.112915,149.752014 
	C503.112915,145.335449 503.112915,140.912918 503.112976,135.992294 
z"/>
<path fill="#666666" opacity="1.000000" stroke="none" 
	d="
M257.344177,209.753082 
	C250.600204,209.825516 244.290451,209.825516 237.641144,209.825516 
	C237.641144,196.020401 237.641144,182.311172 237.641144,167.708328 
	C245.081955,168.116608 252.381287,168.035736 259.525879,169.047546 
	C266.363586,170.015900 270.803101,174.583679 272.476868,181.332855 
	C274.159241,188.116760 274.093323,194.920135 270.697113,201.243484 
	C267.974792,206.312042 263.227020,208.614075 257.344177,209.753082 
M264.413757,184.416183 
	C262.162384,176.372818 257.310944,173.987137 246.132751,175.578323 
	C246.132751,184.565750 246.132751,193.586395 246.132751,202.996460 
	C248.206757,202.996460 249.998611,203.028030 251.789047,202.991119 
	C260.529663,202.810959 264.461273,198.983704 264.861633,190.183472 
	C264.936554,188.536133 264.718109,186.875443 264.413757,184.416183 
z"/>
<path fill="#646464" opacity="1.000000" stroke="none" 
	d="
M407.468384,206.384674 
	C401.053711,211.898743 396.646179,212.036331 389.260345,207.215897 
	C387.760071,212.102615 383.934631,209.300446 380.759460,210.019485 
	C380.759460,195.300522 380.759460,180.903000 380.759460,166.144897 
	C383.222839,166.144897 385.608765,166.144897 388.617950,166.144897 
	C388.617950,171.075699 388.617950,175.948227 388.617950,181.149170 
	C391.308960,179.929565 393.283783,178.615372 395.444427,178.132645 
	C402.376984,176.583725 408.058014,180.000946 410.013031,186.940750 
	C411.882477,193.576828 411.695801,200.101471 407.468384,206.384674 
M391.034088,186.340240 
	C387.653473,190.354691 387.882996,194.951019 389.351440,199.477600 
	C390.670258,203.542969 395.528595,205.076065 399.189697,202.966248 
	C402.766052,200.905258 404.126343,193.373230 401.815948,188.424728 
	C400.069275,184.683685 396.997833,183.902008 391.034088,186.340240 
z"/>
<path fill="#626262" opacity="1.000000" stroke="none" 
	d="
M533.469360,206.584808 
	C529.468994,210.685150 524.940186,211.583984 519.964355,209.835419 
	C515.063538,208.113220 512.784668,204.080643 512.058960,199.212570 
	C511.670898,196.609360 511.622772,193.896927 511.848877,191.270615 
	C512.919250,178.836975 523.282043,174.025940 533.987244,181.603210 
	C533.987244,176.228653 533.987244,171.234482 533.987244,166.032776 
	C536.847839,166.032776 539.118958,166.032776 541.718262,166.032776 
	C541.718262,180.570541 541.718262,195.088623 541.718262,210.107437 
	C538.883057,208.839951 534.300598,212.982330 533.469360,206.584808 
M534.049500,192.723038 
	C533.104004,186.764404 531.079163,184.584564 526.625977,184.705292 
	C522.323669,184.821930 520.533386,187.463882 520.000122,191.322876 
	C519.079529,197.985336 520.762207,202.363998 524.847107,203.525787 
	C528.508301,204.567047 531.522400,203.382523 533.004517,199.840729 
	C533.800598,197.938309 533.748413,195.680908 534.049500,192.723038 
z"/>
<path fill="#656565" opacity="1.000000" stroke="none" 
	d="
M368.682892,180.206619 
	C369.944672,182.716904 371.631195,184.934921 371.741180,187.228577 
	C372.097137,194.650955 371.874084,202.101089 371.874084,209.775162 
	C369.260742,209.775162 366.985840,209.775162 363.983521,209.775162 
	C363.983521,203.968704 363.986511,198.052475 363.982391,192.136246 
	C363.979858,188.485779 363.899811,184.875656 358.854980,184.709778 
	C354.604248,184.569977 352.020508,186.943237 351.791809,191.926834 
	C351.526337,197.711700 351.729919,203.518082 351.729919,209.662918 
	C348.869110,209.662918 346.478424,209.662918 343.757751,209.662918 
	C343.757751,195.319138 343.757751,180.931641 343.757751,166.162964 
	C346.190704,166.162964 348.572754,166.162964 351.459167,166.162964 
	C351.459167,171.260010 351.459167,176.345322 351.459167,182.310883 
	C357.131470,177.566681 362.530914,176.216003 368.682892,180.206619 
z"/>
<path fill="#616161" opacity="1.000000" stroke="none" 
	d="
M565.958923,205.833725 
	C565.958801,193.084549 565.958801,180.815598 565.958801,168.219574 
	C572.547180,168.219574 578.697571,167.770752 584.754150,168.332748 
	C592.391357,169.041412 596.403625,174.317978 596.137024,182.052521 
	C595.886658,189.312668 591.410156,193.747299 583.676208,194.202957 
	C580.724182,194.376877 577.753235,194.231247 574.267944,194.231247 
	C574.267944,199.697525 574.267944,204.595886 574.267944,210.354385 
	C571.120056,208.462006 565.973145,213.695602 565.958923,205.833725 
M575.703186,174.836914 
	C574.993164,179.060120 574.283081,183.283310 573.512817,187.864532 
	C577.198120,187.864532 579.520081,188.018890 581.813965,187.830841 
	C585.969177,187.490234 588.093079,185.101883 587.927429,180.920349 
	C587.769897,176.942047 585.592834,174.893204 581.597290,174.826828 
	C579.941040,174.799316 578.284241,174.801025 575.703186,174.836914 
z"/>
<path fill="#24A2D9" opacity="1.000000" stroke="none" 
	d="
M513.223511,47.124596 
	C504.516876,45.720585 500.420135,40.816143 500.813965,32.760529 
	C501.152649,25.832247 505.993286,20.997925 513.331421,20.259434 
	C520.649353,19.522970 527.227234,24.073004 528.705383,30.893681 
	C530.152405,37.571045 526.527649,44.246643 520.029053,46.365616 
	C518.031616,47.016937 515.786438,46.908897 513.223511,47.124596 
z"/>
<path fill="#636363" opacity="1.000000" stroke="none" 
	d="
M618.074219,196.011169 
	C615.135498,196.011169 612.679321,196.011169 610.223206,196.011169 
	C609.872742,196.459885 609.522278,196.908585 609.171814,197.357300 
	C610.973755,199.353271 612.419250,202.044250 614.656372,203.191467 
	C618.559631,205.193085 622.047913,203.384720 624.989746,199.686081 
	C626.763428,200.827820 628.502930,201.947632 630.154724,203.010956 
	C627.502869,210.817688 616.755920,212.248978 609.757507,209.052292 
	C602.627319,205.795395 599.486572,196.129501 602.657410,187.365631 
	C605.361145,179.892868 613.049011,176.180130 621.459473,178.285446 
	C628.487793,180.044785 631.768005,186.343369 630.215637,196.011169 
	C626.420959,196.011169 622.488892,196.011169 618.074219,196.011169 
M622.484558,187.353928 
	C620.756714,183.896866 617.632507,183.064987 614.585571,184.483215 
	C612.499390,185.454285 611.128357,187.961731 609.437622,189.782349 
	C613.768555,190.948410 617.057312,190.855530 620.337769,190.980865 
	C622.544617,191.065216 623.420471,190.312256 622.484558,187.353928 
z"/>
<path fill="#646464" opacity="1.000000" stroke="none" 
	d="
M698.521118,198.805450 
	C698.994080,200.747299 699.361267,202.268539 699.967468,203.687637 
	C700.690735,205.380676 701.618896,206.986206 702.458313,208.629639 
	C700.827515,209.130188 699.089661,210.246689 697.591248,209.986145 
	C695.375427,209.600861 693.329712,208.237289 690.794006,207.103561 
	C689.163025,207.928772 686.730164,209.759766 684.015320,210.405991 
	C678.665833,211.679321 674.088684,208.751694 672.777344,203.889297 
	C671.287903,198.366989 673.565491,194.233505 679.363281,192.374832 
	C681.881042,191.567657 684.660645,191.489349 687.077942,190.490784 
	C688.477966,189.912430 689.393860,188.162323 690.527649,186.939529 
	C688.968140,186.020752 687.241699,184.140640 685.882812,184.376694 
	C682.731506,184.924072 679.757935,186.494049 676.208923,187.840424 
	C675.495789,186.843307 674.473816,185.414368 673.492615,184.042511 
	C677.795471,177.923828 688.758423,175.535294 694.401123,179.805054 
	C696.271301,181.220184 697.687927,184.025436 698.095337,186.403549 
	C698.761597,190.292435 698.431213,194.352036 698.521118,198.805450 
M687.513245,204.058685 
	C691.037354,201.884567 691.280762,198.630493 690.607666,194.843246 
	C688.705505,195.260452 686.962952,195.663834 685.211121,196.021942 
	C682.413940,196.593765 679.826904,197.718582 680.378723,201.065048 
	C680.962524,204.606308 683.646729,205.221466 687.513245,204.058685 
z"/>
<path fill="#646464" opacity="1.000000" stroke="none" 
	d="
M426.552521,209.734756 
	C418.437500,205.712997 415.125671,198.074982 417.314758,189.143066 
	C419.108246,181.825317 424.678558,177.779495 432.796814,177.898148 
	C442.580780,178.041138 448.441803,184.839386 447.926178,195.447021 
	C447.447906,205.287491 440.381775,211.570068 430.831848,210.600571 
	C429.515900,210.466980 428.222137,210.115341 426.552521,209.734756 
M432.464905,184.696396 
	C428.516876,184.586182 426.171356,186.665421 425.443481,190.352722 
	C424.593842,194.656799 424.064056,199.521225 428.082062,202.197083 
	C430.127686,203.559387 435.471893,203.606735 436.410950,202.242538 
	C438.425781,199.315643 439.103638,195.114319 439.287720,191.383423 
	C439.462860,187.835236 437.365509,185.098999 432.464905,184.696396 
z"/>
<path fill="#646464" opacity="1.000000" stroke="none" 
	d="
M645.595337,202.880707 
	C645.595154,205.338501 645.595154,207.316925 645.595154,209.653076 
	C642.873779,209.653076 640.476196,209.653076 637.760681,209.653076 
	C637.760681,199.466248 637.760681,189.228180 637.760681,178.631393 
	C640.016052,178.631393 642.097656,178.631393 644.637878,178.631393 
	C644.868713,179.701218 645.154419,181.024979 645.512512,182.684448 
	C646.659668,181.644623 647.548767,180.698074 648.573242,179.932693 
	C655.553284,174.718155 665.052002,178.571182 665.786743,187.177582 
	C666.295227,193.134018 665.951416,199.163361 665.984558,205.160141 
	C665.992676,206.625244 665.985718,208.090439 665.985718,209.771240 
	C663.267578,209.771240 660.989075,209.771240 657.985535,209.771240 
	C657.985535,203.946838 657.980042,198.017838 657.987671,192.088837 
	C657.992310,188.428513 657.966248,184.814438 652.856445,184.699142 
	C648.530945,184.601547 646.128418,186.890076 645.765076,191.912415 
	C645.513123,195.394592 645.638611,198.904068 645.595337,202.880707 
z"/>
<path fill="#646464" opacity="1.000000" stroke="none" 
	d="
M301.793762,180.079437 
	C303.118896,183.020111 304.606354,185.662506 304.999268,188.458694 
	C305.503601,192.048065 304.873688,195.787521 305.250671,199.408371 
	C305.413757,200.975067 306.979248,202.356827 307.710541,203.915131 
	C308.341919,205.260544 309.091949,206.762329 309.004181,208.145142 
	C308.959229,208.853256 307.084900,210.119476 306.227142,209.978516 
	C303.367371,209.508652 300.593475,208.516495 298.396851,207.896683 
	C294.310089,208.719742 290.339874,210.220276 286.407013,210.128098 
	C281.829010,210.020813 279.544617,206.462463 279.145935,202.009155 
	C278.761078,197.710602 280.572083,194.459869 284.668579,192.983047 
	C287.614410,191.921036 290.858368,191.663025 293.764313,190.523499 
	C295.159271,189.976456 296.079681,188.219254 297.214996,187.010117 
	C295.703094,186.063156 294.022430,184.138000 292.712891,184.363937 
	C289.559814,184.907913 286.580566,186.459167 282.905426,187.839096 
	C282.198547,186.833862 281.097504,185.268082 280.026093,183.744461 
	C285.881927,177.447952 293.587952,176.106277 301.793762,180.079437 
M297.686401,198.163849 
	C296.923248,197.162064 296.144135,195.310257 295.400055,195.324203 
	C293.474670,195.360336 291.234344,195.775604 289.747864,196.882797 
	C288.439026,197.857712 287.039337,200.240982 287.401062,201.512650 
	C287.789337,202.877640 290.147247,204.475525 291.713623,204.550385 
	C295.185516,204.716354 297.021362,202.286667 297.686401,198.163849 
z"/>
<path fill="#646464" opacity="1.000000" stroke="none" 
	d="
M453.915680,197.257843 
	C457.102386,195.117691 460.083313,193.202484 463.236145,191.632507 
	C464.673615,190.916733 466.669983,191.246185 468.011353,190.436432 
	C469.335449,189.637161 470.152740,187.998337 471.192413,186.727829 
	C469.759796,185.875427 468.150604,184.110138 466.928619,184.346542 
	C463.630493,184.984604 460.497284,186.475052 456.860870,187.784973 
	C456.154968,186.784012 455.122528,185.320007 454.117920,183.895447 
	C458.815735,178.166718 467.921173,175.628235 473.879730,179.196182 
	C476.290405,180.639694 478.147095,184.099396 478.870148,186.988419 
	C479.733337,190.437378 479.017151,194.262009 479.164520,197.916656 
	C479.262299,200.342255 478.021820,203.461319 482.191132,204.196945 
	C482.732941,204.292542 483.285583,206.867615 483.016388,208.118393 
	C482.839111,208.942123 481.087524,210.118683 480.230957,209.978180 
	C477.369781,209.508804 474.594238,208.517380 470.926056,207.483612 
	C466.401550,211.089096 461.588135,211.998779 457.185303,209.053848 
	C453.007446,206.259384 452.299835,202.214554 453.915680,197.257843 
M466.525299,195.953964 
	C463.355225,196.508545 460.137146,197.556931 461.367126,201.502213 
	C461.813263,202.933258 464.870026,204.460342 466.661377,204.375504 
	C470.572662,204.190277 472.082520,200.560822 471.146729,195.133240 
	C470.824677,195.079941 470.476990,194.921555 470.185242,194.992661 
	C469.218506,195.228256 468.271881,195.546524 466.525299,195.953964 
z"/>
<path fill="#646464" opacity="1.000000" stroke="none" 
	d="
M320.785095,188.381561 
	C323.969360,189.673264 326.919952,190.700317 329.907349,191.605850 
	C334.569885,193.019150 337.376587,195.770676 337.137878,200.973175 
	C336.903992,206.070435 333.958282,208.804306 329.328003,210.032822 
	C322.255676,211.909256 315.780609,209.950165 311.707581,204.560410 
	C312.934845,203.157227 314.216187,201.692230 315.095306,200.687103 
	C318.814453,201.896927 322.082306,203.251495 325.484650,203.893585 
	C326.540527,204.092834 327.961334,202.358658 329.215057,201.509644 
	C328.300049,200.320084 327.625793,198.604767 326.419098,198.052261 
	C324.030670,196.958710 321.280029,196.687393 318.802582,195.749954 
	C314.848816,194.253891 312.626251,191.440445 312.815735,186.970673 
	C312.994110,182.763260 315.257904,180.232834 318.997925,178.779236 
	C324.930878,176.473282 331.749969,177.909637 336.072479,182.530579 
	C334.776062,183.957581 333.463562,185.402298 332.200562,186.792557 
	C324.649048,182.614319 321.355408,183.027527 320.785095,188.381561 
z"/>
<path fill="#676767" opacity="1.000000" stroke="none" 
	d="
M718.002808,203.796783 
	C719.267090,205.583969 720.112244,207.322021 720.931213,209.006210 
	C713.359375,212.511353 707.897888,209.513992 707.691101,201.852524 
	C707.373535,190.082657 707.607605,178.297913 707.607605,166.103607 
	C710.097351,166.103607 712.480103,166.103607 715.670776,166.103607 
	C715.670776,170.384140 715.670715,174.777069 715.670837,179.169998 
	C715.670959,185.643021 715.539185,192.120544 715.758972,198.586105 
	C715.818054,200.325302 716.946228,202.028137 718.002808,203.796783 
z"/>
<path fill="#666666" opacity="1.000000" stroke="none" 
	d="
M496.210754,181.059967 
	C497.070648,181.034424 497.891174,180.527100 498.782379,180.310898 
	C501.538757,179.642151 504.322052,179.084229 507.094879,178.483276 
	C507.370667,180.750473 507.646454,183.017670 507.919678,185.264053 
	C497.754639,186.108017 496.693024,187.265610 496.613007,196.831482 
	C496.577209,201.107773 496.606995,205.384598 496.606995,209.835632 
	C493.759186,209.835632 491.471039,209.835632 488.810852,209.835632 
	C488.810852,199.426270 488.810852,189.105591 488.810852,178.267410 
	C491.476044,179.357559 495.018982,175.680130 496.210754,181.059967 
z"/>
<path fill="#FBFDFE" opacity="1.000000" stroke="none" 
	d="
M142.064804,172.965759 
	C130.314713,154.160309 118.647705,135.729630 107.243309,117.137863 
	C105.247017,113.883461 103.173180,112.397316 99.330818,112.783112 
	C95.745987,113.143044 92.096603,112.860046 88.240715,112.860046 
	C88.240715,135.981522 88.240715,158.593567 88.240715,181.766510 
	C92.212944,181.766510 96.272614,181.766510 100.651031,181.766510 
	C100.651031,184.040100 100.651031,185.759338 100.651031,187.760605 
	C83.834084,187.760605 67.086922,187.760605 50.045578,187.760605 
	C50.045578,185.887344 50.045578,184.174301 50.045578,182.042480 
	C54.043377,182.042480 57.821365,182.042480 61.939713,182.042480 
	C61.939713,158.902130 61.939713,136.176071 61.939713,113.243004 
	C57.973362,112.715164 53.998821,112.233002 50.065609,111.522202 
	C49.872589,111.487312 50.040794,109.453644 50.040794,107.886169 
	C53.999153,107.886169 57.766285,107.886169 61.910088,107.886169 
	C61.910088,81.876152 61.910088,56.329945 61.910088,30.307716 
	C58.046883,30.307716 54.281116,30.307716 50.300823,30.307716 
	C49.581795,27.483240 48.959080,25.292082 52.775990,25.313257 
	C81.933197,25.475014 111.130966,24.752308 140.234329,26.087467 
	C162.155273,27.093124 178.249832,46.478767 178.711655,69.176811 
	C179.125839,89.533218 163.013077,108.571228 142.412384,111.988228 
	C139.164352,112.526970 135.871185,112.793579 132.051086,113.251709 
	C134.434280,117.127197 136.650070,120.782074 138.915634,124.405838 
	C149.772125,141.770813 160.825928,159.016815 171.377289,176.565063 
	C173.997543,180.922867 176.854889,182.717896 181.701630,182.037888 
	C183.623795,181.768188 185.615433,181.993607 187.805191,181.993607 
	C187.805191,184.071274 187.805191,185.681473 187.805191,188.038223 
	C179.445068,188.038223 171.016525,188.038223 162.587967,188.038223 
	C154.270676,188.038223 145.953369,188.038223 137.114624,188.038223 
	C137.016006,186.090134 136.929138,184.373779 136.810791,182.035797 
	C140.321838,182.035797 143.526703,182.035797 147.688614,182.035797 
	C145.518082,178.551987 143.877594,175.918900 142.064804,172.965759 
M130.186401,35.151127 
	C116.752495,28.385889 102.430603,30.394979 88.364471,30.303030 
	C88.364471,56.444920 88.364471,81.981728 88.364471,107.647583 
	C96.370628,107.647583 104.096725,108.391968 111.604149,107.429939 
	C118.560310,106.538551 125.713135,104.728165 132.021698,101.728828 
	C146.849533,94.679070 154.757019,78.807182 151.936554,62.914539 
	C149.691895,50.266396 142.217850,41.307411 130.186401,35.151127 
z"/>
<path fill="#FCFEFE" opacity="1.000000" stroke="none" 
	d="
M289.864471,47.868164 
	C300.034790,49.987026 303.849213,55.581097 302.996765,66.550323 
	C302.342346,74.970879 296.881470,79.884933 287.522491,80.103409 
	C279.890289,80.281578 272.250549,80.139641 264.265015,80.139641 
	C264.265015,69.290672 264.265015,58.721325 264.265015,47.825874 
	C272.626099,47.825874 281.034119,47.825874 289.864471,47.868164 
z"/>
<path fill="#FCFEFF" opacity="1.000000" stroke="none" 
	d="
M371.674072,86.912910 
	C376.751740,76.125542 386.542450,71.900192 397.391632,75.525352 
	C404.706055,77.969406 408.613617,84.905411 407.621063,94.023811 
	C395.275513,94.023811 382.896851,94.023811 369.865906,94.023811 
	C370.460907,91.585693 370.987396,89.428200 371.674072,86.912910 
z"/>
<path fill="#FCFEFF" opacity="1.000000" stroke="none" 
	d="
M581.397949,77.159851 
	C587.058716,76.329788 592.488098,74.708328 597.687195,75.259377 
	C605.859192,76.125519 610.285950,83.605713 609.833069,93.940582 
	C597.335205,93.940582 584.821167,93.940582 571.982971,93.940582 
	C572.916687,87.039772 575.266479,81.270767 581.397949,77.159851 
z"/>
<path fill="#FDFDFD" opacity="1.000000" stroke="none" 
	d="
M264.524414,184.818542 
	C264.718109,186.875443 264.936554,188.536133 264.861633,190.183472 
	C264.461273,198.983704 260.529663,202.810959 251.789047,202.991119 
	C249.998611,203.028030 248.206757,202.996460 246.132751,202.996460 
	C246.132751,193.586395 246.132751,184.565750 246.132751,175.578323 
	C257.310944,173.987137 262.162384,176.372818 264.524414,184.818542 
z"/>
<path fill="#F9F9F9" opacity="1.000000" stroke="none" 
	d="
M391.355225,186.092224 
	C396.997833,183.902008 400.069275,184.683685 401.815948,188.424728 
	C404.126343,193.373230 402.766052,200.905258 399.189697,202.966248 
	C395.528595,205.076065 390.670258,203.542969 389.351440,199.477600 
	C387.882996,194.951019 387.653473,190.354691 391.355225,186.092224 
z"/>
<path fill="#FBFBFB" opacity="1.000000" stroke="none" 
	d="
M534.064270,193.153366 
	C533.748413,195.680908 533.800598,197.938309 533.004517,199.840729 
	C531.522400,203.382523 528.508301,204.567047 524.847107,203.525787 
	C520.762207,202.363998 519.079529,197.985336 520.000122,191.322876 
	C520.533386,187.463882 522.323669,184.821930 526.625977,184.705292 
	C531.079163,184.584564 533.104004,186.764404 534.064270,193.153366 
z"/>
<path fill="#F8F8F8" opacity="1.000000" stroke="none" 
	d="
M576.165405,174.813187 
	C578.284241,174.801025 579.941040,174.799316 581.597290,174.826828 
	C585.592834,174.893204 587.769897,176.942047 587.927429,180.920349 
	C588.093079,185.101883 585.969177,187.490234 581.813965,187.830841 
	C579.520081,188.018890 577.198120,187.864532 573.512817,187.864532 
	C574.283081,183.283310 574.993164,179.060120 576.165405,174.813187 
z"/>
<path fill="#F4F4F4" opacity="1.000000" stroke="none" 
	d="
M622.641846,187.735046 
	C623.420471,190.312256 622.544617,191.065216 620.337769,190.980865 
	C617.057312,190.855530 613.768555,190.948410 609.437622,189.782349 
	C611.128357,187.961731 612.499390,185.454285 614.585571,184.483215 
	C617.632507,183.064987 620.756714,183.896866 622.641846,187.735046 
z"/>
<path fill="#F4F4F4" opacity="1.000000" stroke="none" 
	d="
M687.158691,204.184784 
	C683.646729,205.221466 680.962524,204.606308 680.378723,201.065048 
	C679.826904,197.718582 682.413940,196.593765 685.211121,196.021942 
	C686.962952,195.663834 688.705505,195.260452 690.607666,194.843246 
	C691.280762,198.630493 691.037354,201.884567 687.158691,204.184784 
z"/>
<path fill="#FAFAFA" opacity="1.000000" stroke="none" 
	d="
M432.882629,184.724899 
	C437.365509,185.098999 439.462860,187.835236 439.287720,191.383423 
	C439.103638,195.114319 438.425781,199.315643 436.410950,202.242538 
	C435.471893,203.606735 430.127686,203.559387 428.082062,202.197083 
	C424.064056,199.521225 424.593842,194.656799 425.443481,190.352722 
	C426.171356,186.665421 428.516876,184.586182 432.882629,184.724899 
z"/>
<path fill="#F4F4F4" opacity="1.000000" stroke="none" 
	d="
M297.632019,198.550415 
	C297.021362,202.286667 295.185516,204.716354 291.713623,204.550385 
	C290.147247,204.475525 287.789337,202.877640 287.401062,201.512650 
	C287.039337,200.240982 288.439026,197.857712 289.747864,196.882797 
	C291.234344,195.775604 293.474670,195.360336 295.400055,195.324203 
	C296.144135,195.310257 296.923248,197.162064 297.632019,198.550415 
z"/>
<path fill="#F4F4F4" opacity="1.000000" stroke="none" 
	d="
M466.921417,195.893524 
	C468.271881,195.546524 469.218506,195.228256 470.185242,194.992661 
	C470.476990,194.921555 470.824677,195.079941 471.146240,195.136292 
	C472.082520,200.560822 470.572662,204.190277 466.661377,204.375504 
	C464.870026,204.460342 461.813263,202.933258 461.367126,201.502213 
	C460.137146,197.556931 463.355225,196.508545 466.921417,195.893524 
z"/>
<path fill="#22A1D8" opacity="1.000000" stroke="none" 
	d="
M130.509369,35.341480 
	C142.217850,41.307411 149.691895,50.266396 151.936554,62.914539 
	C154.757019,78.807182 146.849533,94.679070 132.021698,101.728828 
	C125.713135,104.728165 118.560310,106.538551 111.604149,107.429939 
	C104.096725,108.391968 96.370628,107.647583 88.364471,107.647583 
	C88.364471,81.981728 88.364471,56.444920 88.364471,30.303030 
	C102.430603,30.394979 116.752495,28.385889 130.509369,35.341480 
z"/>
</svg>