<svg version="1.1" id="Layer_1" xmlns="http://www.w3.org/2000/svg" xmlns:xlink="http://www.w3.org/1999/xlink" x="0px" y="0px"
	 width="100%" viewBox="0 0 764 237" enable-background="new 0 0 764 237" xml:space="preserve">
<path fill="#FEFFFF" opacity="1.000000" stroke="none" 
	d="
M189.000000,1.000001 
	C380.949066,1.000000 572.898132,1.000000 764.923584,1.000000 
	C764.923584,79.928040 764.923584,158.856186 764.923584,237.892151 
	C510.333374,237.892151 255.666687,237.892151 1.000000,237.892151 
	C1.000000,223.255692 1.000000,208.592850 1.326338,193.644623 
	C6.944938,219.289093 29.627743,235.928787 56.492306,235.288773 
	C97.633659,234.308655 138.815567,235.057800 179.980209,235.020020 
	C209.010529,234.993378 231.434387,213.582047 231.686554,184.675079 
	C232.071762,140.513947 231.999481,96.345680 231.710419,52.183136 
	C231.558716,29.008949 217.843597,10.746645 196.305069,3.508796 
	C193.864609,2.688703 191.434769,1.837031 189.000000,1.000001 
M338.398285,62.054264 
	C333.735901,59.992294 329.172302,56.459705 324.392944,56.138557 
	C308.806763,55.091248 293.141907,55.209511 277.507019,54.896748 
	C275.067871,54.847954 272.626892,54.889927 270.125427,54.889927 
	C270.125427,91.567703 270.125427,127.607788 270.125427,163.726257 
	C277.230164,163.726257 283.981384,163.726257 291.245087,163.726257 
	C291.245087,148.713608 291.245087,133.967590 291.245087,118.660179 
	C294.708038,118.660179 297.661530,118.650963 300.614990,118.661781 
	C313.402130,118.708611 316.497925,120.909058 320.544067,133.056076 
	C323.591797,142.205750 326.452911,151.418839 329.619049,160.526520 
	C330.096375,161.899536 331.737854,163.783218 332.921143,163.843094 
	C339.366425,164.169250 345.836884,163.998169 352.860657,163.998169 
	C349.272156,153.257782 345.774689,143.058746 342.464539,132.799316 
	C339.712341,124.269135 336.341980,116.233414 328.100128,111.415184 
	C327.961029,111.333862 328.082733,110.806389 328.082672,110.487106 
	C350.010529,98.436615 354.574097,78.288116 338.398285,62.054264 
M562.518860,86.951599 
	C548.779968,97.041267 545.288086,111.461517 546.542419,127.244095 
	C548.242920,148.640030 558.063904,160.822189 576.526855,164.294250 
	C583.565308,165.617859 591.169189,165.494797 598.288635,164.464539 
	C609.113953,162.898010 616.773743,156.336578 621.634583,146.017883 
	C616.525757,142.813492 611.817200,139.860184 607.174377,136.948074 
	C598.866699,147.593430 588.843384,150.679443 578.463440,146.194214 
	C571.507080,143.188339 567.400696,135.803650 568.471558,127.630821 
	C570.199951,127.630821 571.996887,127.630821 573.793823,127.630821 
	C587.786194,127.630814 601.781250,127.478325 615.769470,127.718895 
	C620.268860,127.796272 622.722717,126.883476 622.290344,121.788254 
	C621.925659,117.489792 622.325989,113.123108 621.910278,108.832893 
	C620.551331,94.809250 612.163086,84.807602 598.666565,81.504555 
	C586.232422,78.461510 574.211060,79.570526 562.518860,86.951599 
M390.430115,140.894394 
	C388.912140,136.818222 387.394165,132.742050 385.490936,127.631393 
	C388.780701,127.631393 390.566345,127.631432 392.351990,127.631393 
	C406.842468,127.631058 421.333679,127.551376 435.822937,127.683937 
	C439.634674,127.718811 441.339783,126.475929 441.069031,122.492668 
	C440.809814,118.678833 441.231720,114.813492 440.897278,111.010986 
	C439.984619,100.634781 436.405518,91.573776 427.219330,85.625038 
	C404.396088,70.845360 372.343994,83.560982 366.516174,109.959160 
	C365.242798,115.727211 364.938141,121.893837 365.308899,127.806572 
	C366.578796,148.058990 377.333862,161.196182 395.808594,164.459656 
	C402.559174,165.652115 409.800446,165.557114 416.609772,164.587753 
	C427.643127,163.017075 435.392639,156.382462 440.540863,146.106644 
	C435.300629,142.815826 430.594025,139.860107 425.961578,136.950943 
	C415.343536,150.237640 401.167816,151.874634 390.430115,140.894394 
M637.685791,81.434753 
	C635.601501,81.434753 633.517151,81.434753 631.442383,81.434753 
	C631.442383,87.406502 631.442383,92.498161 631.442383,98.060120 
	C635.321777,98.060120 638.904663,98.060120 643.025391,98.060120 
	C643.025391,120.238960 643.025391,141.948196 643.025391,163.699951 
	C650.148926,163.699951 656.717590,163.699951 663.891846,163.699951 
	C663.891846,141.705994 663.891846,120.009277 663.891846,97.851555 
	C671.910095,97.851555 679.324280,97.851555 686.888306,97.851555 
	C686.888306,92.266396 686.888306,87.155251 686.888306,81.433838 
	C680.257324,81.433838 673.797241,81.286362 667.348816,81.496094 
	C664.127136,81.600868 663.017029,80.391769 662.691772,77.274017 
	C661.659119,67.375725 667.009155,62.419868 677.336060,64.263260 
	C680.504150,64.828773 683.547974,66.090599 686.992676,67.138176 
	C688.685425,61.782124 690.264893,56.784466 691.808960,51.899055 
	C683.731384,46.740475 670.337280,45.357155 659.563599,48.486961 
	C650.191406,51.209618 643.653687,56.852070 642.128784,66.889389 
	C641.586060,70.461876 641.758179,74.227203 642.181396,77.836777 
	C642.550476,80.984482 641.286011,81.682281 637.685791,81.434753 
M458.684174,76.499939 
	C458.700043,98.637444 458.644531,120.775291 458.752472,142.912338 
	C458.854095,163.750320 474.701508,167.597031 489.218811,164.668945 
	C490.294800,164.451920 491.932953,162.825516 491.884491,161.931549 
	C491.628998,157.217773 490.915863,152.528793 490.374146,147.938080 
	C480.492920,148.036621 479.197906,146.728088 479.195251,137.270264 
	C479.187622,109.806297 479.192413,82.342339 479.192352,54.878372 
	C479.192352,52.941669 479.192352,51.004967 479.192352,48.917015 
	C472.108826,48.917015 465.704285,48.917015 458.683868,48.917015 
	C458.683868,57.960667 458.683868,66.730301 458.684174,76.499939 
M506.224518,118.499969 
	C506.224518,133.565887 506.224518,148.631821 506.224518,163.716705 
	C513.503662,163.716705 520.076172,163.716705 526.730469,163.716705 
	C526.730469,136.264709 526.730469,109.103508 526.730469,81.861176 
	C519.842163,81.861176 513.271118,81.861176 506.224701,81.861176 
	C506.224701,93.963707 506.224701,105.731834 506.224518,118.499969 
M528.911682,55.743484 
	C526.808838,49.995274 522.350525,47.487381 516.581604,47.504246 
	C511.460632,47.519215 507.222046,49.612789 505.045624,54.653809 
	C502.992096,59.410084 504.088013,64.985222 507.686401,68.425415 
	C511.571014,72.139320 517.823608,72.933838 522.987549,70.369637 
	C527.992615,67.884346 529.971252,63.358082 528.911682,55.743484 
z"/>
<path fill="#21A0D8" opacity="1.000000" stroke="none" 
	d="
M188.531342,1.000001 
	C191.434769,1.837031 193.864609,2.688703 196.305069,3.508796 
	C217.843597,10.746645 231.558716,29.008949 231.710419,52.183136 
	C231.999481,96.345680 232.071762,140.513947 231.686554,184.675079 
	C231.434387,213.582047 209.010529,234.993378 179.980209,235.020020 
	C138.815567,235.057800 97.633659,234.308655 56.492306,235.288773 
	C29.627743,235.928787 6.944938,219.289093 1.326338,193.179626 
	C1.000000,143.312439 1.000000,93.624878 1.327721,43.299965 
	C6.466547,23.448704 17.555065,9.845038 36.704121,3.444573 
	C39.136681,2.631505 41.568069,1.814944 44.000000,1.000000 
	C92.020897,1.000000 140.041794,1.000000 188.531342,1.000001 
M178.566925,72.143250 
	C179.620850,47.400307 162.957123,26.974686 138.233963,25.824314 
	C109.800453,24.501307 81.264198,25.387815 52.772572,25.311728 
	C48.953907,25.301529 49.577366,27.483740 50.304455,30.308041 
	C54.282166,30.308041 58.047382,30.308041 61.915203,30.308041 
	C61.915203,56.327091 61.915203,81.870842 61.915203,107.878212 
	C57.777851,107.878212 54.011322,107.878212 50.033794,107.878212 
	C50.033794,109.436714 49.864052,111.472626 50.058846,111.508133 
	C53.989334,112.224388 57.961697,112.710831 61.950989,113.246849 
	C61.950989,136.161011 61.950989,158.885406 61.950989,182.195816 
	C57.734932,182.195816 53.846218,182.195816 49.703506,182.195816 
	C49.819088,184.399765 49.903011,186.000076 49.996017,187.773605 
	C67.058884,187.773605 83.804436,187.773605 100.666992,187.773605 
	C100.666992,185.780182 100.666992,184.061676 100.666992,181.795242 
	C96.306450,181.795242 92.244659,181.795242 88.393707,181.795242 
	C88.393707,158.507797 88.393707,135.779953 88.393707,112.860191 
	C92.458763,112.860191 96.138466,113.087524 99.776154,112.794029 
	C103.176949,112.519653 105.162804,113.732086 106.964310,116.655045 
	C119.541550,137.061707 132.304565,157.353851 144.991364,177.693085 
	C145.739059,178.891769 146.341782,180.180878 147.338287,182.035095 
	C143.544998,182.035095 140.455521,182.035095 137.121811,182.035095 
	C137.121811,184.160400 137.121811,185.877106 137.121811,187.771927 
	C154.142410,187.771927 170.886826,187.771927 187.731796,187.771927 
	C187.731796,185.781143 187.731796,184.060272 187.731796,181.993607 
	C185.285889,181.993607 183.106201,181.729584 181.014999,182.047577 
	C176.403015,182.748886 173.950012,180.655273 171.592804,176.801025 
	C159.433685,156.919952 146.954239,137.234848 134.599274,117.473427 
	C133.762131,116.134460 133.029327,114.730270 132.139740,113.166046 
	C159.961884,110.643379 174.773514,97.663902 178.566925,72.143250 
z"/>
<path fill="#FCFEFE" opacity="1.000000" stroke="none" 
	d="
M43.531342,1.000000 
	C41.568069,1.814944 39.136681,2.631505 36.704121,3.444573 
	C17.555065,9.845038 6.466547,23.448704 1.327721,42.831306 
	C1.000000,29.072454 1.000000,15.144910 1.000000,1.000000 
	C15.020146,1.000000 29.041414,1.000000 43.531342,1.000000 
z"/>
<path fill="#22A1D8" opacity="1.000000" stroke="none" 
	d="
M338.673035,62.285618 
	C354.574097,78.288116 350.010529,98.436615 328.082703,110.487106 
	C328.082733,110.806389 327.961029,111.333862 328.100128,111.415184 
	C336.341980,116.233414 339.712341,124.269135 342.464539,132.799316 
	C345.774689,143.058746 349.272156,153.257782 352.860657,163.998169 
	C345.836884,163.998169 339.366425,164.169250 332.921143,163.843094 
	C331.737854,163.783218 330.096375,161.899536 329.619049,160.526520 
	C326.452911,151.418839 323.591797,142.205750 320.544067,133.056076 
	C316.497925,120.909058 313.402130,118.708611 300.614990,118.661781 
	C297.661530,118.650963 294.708038,118.660179 291.245087,118.660179 
	C291.245087,133.967590 291.245087,148.713608 291.245087,163.726257 
	C283.981384,163.726257 277.230164,163.726257 270.125427,163.726257 
	C270.125427,127.607788 270.125427,91.567703 270.125427,54.889927 
	C272.626892,54.889927 275.067871,54.847954 277.507019,54.896748 
	C293.141907,55.209511 308.806763,55.091248 324.392944,56.138557 
	C329.172302,56.459705 333.735901,59.992294 338.673035,62.285618 
M307.412384,71.963585 
	C302.143677,71.963585 296.875000,71.963585 291.486633,71.963585 
	C291.486633,81.990036 291.486633,91.387833 291.486633,101.187004 
	C298.746063,101.187004 305.709045,101.368271 312.658844,101.142502 
	C321.973724,100.839897 326.700806,95.737762 326.605255,86.548241 
	C326.513184,77.694267 321.695892,72.587921 312.871338,72.034065 
	C311.377838,71.940331 309.875793,71.983803 307.412384,71.963585 
z"/>
<path fill="#24A2D9" opacity="1.000000" stroke="none" 
	d="
M562.812378,86.742416 
	C574.211060,79.570526 586.232422,78.461510 598.666565,81.504555 
	C612.163086,84.807602 620.551331,94.809250 621.910278,108.832893 
	C622.325989,113.123108 621.925659,117.489792 622.290344,121.788254 
	C622.722717,126.883476 620.268860,127.796272 615.769470,127.718895 
	C601.781250,127.478325 587.786194,127.630814 573.793823,127.630821 
	C571.996887,127.630821 570.199951,127.630821 568.471558,127.630821 
	C567.400696,135.803650 571.507080,143.188339 578.463440,146.194214 
	C588.843384,150.679443 598.866699,147.593430 607.174377,136.948074 
	C611.817200,139.860184 616.525757,142.813492 621.634583,146.017883 
	C616.773743,156.336578 609.113953,162.898010 598.288635,164.464539 
	C591.169189,165.494797 583.565308,165.617859 576.526855,164.294250 
	C558.063904,160.822189 548.242920,148.640030 546.542419,127.244095 
	C545.288086,111.461517 548.779968,97.041267 562.812378,86.742416 
M582.308777,96.497757 
	C573.497009,98.891861 569.596008,103.640793 568.280090,113.792137 
	C579.525696,113.792137 590.738281,113.792137 601.933167,113.792137 
	C602.871704,101.443382 596.315002,95.437096 582.308777,96.497757 
z"/>
<path fill="#24A2D9" opacity="1.000000" stroke="none" 
	d="
M390.665222,141.184967 
	C401.167816,151.874634 415.343536,150.237640 425.961578,136.950943 
	C430.594025,139.860107 435.300629,142.815826 440.540863,146.106644 
	C435.392639,156.382462 427.643127,163.017075 416.609772,164.587753 
	C409.800446,165.557114 402.559174,165.652115 395.808594,164.459656 
	C377.333862,161.196182 366.578796,148.058990 365.308899,127.806572 
	C364.938141,121.893837 365.242798,115.727211 366.516174,109.959160 
	C372.343994,83.560982 404.396088,70.845360 427.219330,85.625038 
	C436.405518,91.573776 439.984619,100.634781 440.897278,111.010986 
	C441.231720,114.813492 440.809814,118.678833 441.069031,122.492668 
	C441.339783,126.475929 439.634674,127.718811 435.822937,127.683937 
	C421.333679,127.551376 406.842468,127.631058 392.351990,127.631393 
	C390.566345,127.631432 388.780701,127.631393 385.490936,127.631393 
	C387.394165,132.742050 388.912140,136.818222 390.665222,141.184967 
M388.024231,113.971230 
	C398.936249,113.971230 409.848267,113.971230 420.718353,113.971230 
	C421.381897,106.025337 418.621521,100.300621 413.134003,97.742622 
	C400.785492,91.986382 387.953125,99.840851 388.024231,113.971230 
z"/>
<path fill="#23A1D9" opacity="1.000000" stroke="none" 
	d="
M638.160522,81.433945 
	C641.286011,81.682281 642.550476,80.984482 642.181396,77.836777 
	C641.758179,74.227203 641.586060,70.461876 642.128784,66.889389 
	C643.653687,56.852070 650.191406,51.209618 659.563599,48.486961 
	C670.337280,45.357155 683.731384,46.740475 691.808960,51.899055 
	C690.264893,56.784466 688.685425,61.782124 686.992676,67.138176 
	C683.547974,66.090599 680.504150,64.828773 677.336060,64.263260 
	C667.009155,62.419868 661.659119,67.375725 662.691772,77.274017 
	C663.017029,80.391769 664.127136,81.600868 667.348816,81.496094 
	C673.797241,81.286362 680.257324,81.433838 686.888306,81.433838 
	C686.888306,87.155251 686.888306,92.266396 686.888306,97.851555 
	C679.324280,97.851555 671.910095,97.851555 663.891846,97.851555 
	C663.891846,120.009277 663.891846,141.705994 663.891846,163.699951 
	C656.717590,163.699951 650.148926,163.699951 643.025391,163.699951 
	C643.025391,141.948196 643.025391,120.238960 643.025391,98.060120 
	C638.904663,98.060120 635.321777,98.060120 631.442383,98.060120 
	C631.442383,92.498161 631.442383,87.406502 631.442383,81.434753 
	C633.517151,81.434753 635.601501,81.434753 638.160522,81.433945 
z"/>
<path fill="#21A0D8" opacity="1.000000" stroke="none" 
	d="
M458.684021,75.999939 
	C458.683868,66.730301 458.683868,57.960667 458.683868,48.917015 
	C465.704285,48.917015 472.108826,48.917015 479.192352,48.917015 
	C479.192352,51.004967 479.192352,52.941669 479.192352,54.878372 
	C479.192413,82.342339 479.187622,109.806297 479.195251,137.270264 
	C479.197906,146.728088 480.492920,148.036621 490.374146,147.938080 
	C490.915863,152.528793 491.628998,157.217773 491.884491,161.931549 
	C491.932953,162.825516 490.294800,164.451920 489.218811,164.668945 
	C474.701508,167.597031 458.854095,163.750320 458.752472,142.912338 
	C458.644531,120.775291 458.700043,98.637444 458.684021,75.999939 
z"/>
<path fill="#24A2D9" opacity="1.000000" stroke="none" 
	d="
M506.224609,117.999969 
	C506.224701,105.731834 506.224701,93.963707 506.224701,81.861176 
	C513.271118,81.861176 519.842163,81.861176 526.730469,81.861176 
	C526.730469,109.103508 526.730469,136.264709 526.730469,163.716705 
	C520.076172,163.716705 513.503662,163.716705 506.224518,163.716705 
	C506.224518,148.631821 506.224518,133.565887 506.224609,117.999969 
z"/>
<path fill="#24A2D9" opacity="1.000000" stroke="none" 
	d="
M528.982056,56.119713 
	C529.971252,63.358082 527.992615,67.884346 522.987549,70.369637 
	C517.823608,72.933838 511.571014,72.139320 507.686401,68.425415 
	C504.088013,64.985222 502.992096,59.410084 505.045624,54.653809 
	C507.222046,49.612789 511.460632,47.519215 516.581604,47.504246 
	C522.350525,47.487381 526.808838,49.995274 528.982056,56.119713 
z"/>
<path fill="#FBFDFE" opacity="1.000000" stroke="none" 
	d="
M178.513763,72.573227 
	C174.773514,97.663902 159.961884,110.643379 132.139740,113.166046 
	C133.029327,114.730270 133.762131,116.134460 134.599274,117.473427 
	C146.954239,137.234848 159.433685,156.919952 171.592804,176.801025 
	C173.950012,180.655273 176.403015,182.748886 181.014999,182.047577 
	C183.106201,181.729584 185.285889,181.993607 187.731796,181.993607 
	C187.731796,184.060272 187.731796,185.781143 187.731796,187.771927 
	C170.886826,187.771927 154.142410,187.771927 137.121811,187.771927 
	C137.121811,185.877106 137.121811,184.160400 137.121811,182.035095 
	C140.455521,182.035095 143.544998,182.035095 147.338287,182.035095 
	C146.341782,180.180878 145.739059,178.891769 144.991364,177.693085 
	C132.304565,157.353851 119.541550,137.061707 106.964310,116.655045 
	C105.162804,113.732086 103.176949,112.519653 99.776154,112.794029 
	C96.138466,113.087524 92.458763,112.860191 88.393707,112.860191 
	C88.393707,135.779953 88.393707,158.507797 88.393707,181.795242 
	C92.244659,181.795242 96.306450,181.795242 100.666992,181.795242 
	C100.666992,184.061676 100.666992,185.780182 100.666992,187.773605 
	C83.804436,187.773605 67.058884,187.773605 49.996017,187.773605 
	C49.903011,186.000076 49.819088,184.399765 49.703506,182.195816 
	C53.846218,182.195816 57.734932,182.195816 61.950989,182.195816 
	C61.950989,158.885406 61.950989,136.161011 61.950989,113.246849 
	C57.961697,112.710831 53.989334,112.224388 50.058846,111.508133 
	C49.864052,111.472626 50.033794,109.436714 50.033794,107.878212 
	C54.011322,107.878212 57.777851,107.878212 61.915203,107.878212 
	C61.915203,81.870842 61.915203,56.327091 61.915203,30.308041 
	C58.047382,30.308041 54.282166,30.308041 50.304455,30.308041 
	C49.577366,27.483740 48.953907,25.301529 52.772572,25.311728 
	C81.264198,25.387815 109.800453,24.501307 138.233963,25.824314 
	C162.957123,26.974686 179.620850,47.400307 178.513763,72.573227 
M132.227646,101.861420 
	C145.179398,94.371628 153.112473,83.333534 152.544601,68.218452 
	C151.896942,50.980217 141.923218,39.599972 126.183815,33.405750 
	C113.931435,28.583843 101.055695,30.352823 88.320755,30.278646 
	C88.320755,56.368668 88.320755,81.906448 88.320755,107.842361 
	C93.442223,107.842361 98.239372,107.790062 103.035004,107.853271 
	C112.949905,107.983940 122.645866,107.085182 132.227646,101.861420 
z"/>
<path fill="#FCFEFE" opacity="1.000000" stroke="none" 
	d="
M307.895020,71.963730 
	C309.875793,71.983803 311.377838,71.940331 312.871338,72.034065 
	C321.695892,72.587921 326.513184,77.694267 326.605255,86.548241 
	C326.700806,95.737762 321.973724,100.839897 312.658844,101.142502 
	C305.709045,101.368271 298.746063,101.187004 291.486633,101.187004 
	C291.486633,91.387833 291.486633,81.990036 291.486633,71.963585 
	C296.875000,71.963585 302.143677,71.963585 307.895020,71.963730 
z"/>
<path fill="#FCFEFE" opacity="1.000000" stroke="none" 
	d="
M582.712219,96.399826 
	C596.315002,95.437096 602.871704,101.443382 601.933167,113.792137 
	C590.738281,113.792137 579.525696,113.792137 568.280090,113.792137 
	C569.596008,103.640793 573.497009,98.891861 582.712219,96.399826 
z"/>
<path fill="#FBFEFE" opacity="1.000000" stroke="none" 
	d="
M387.623016,113.787155 
	C387.953125,99.840851 400.785492,91.986382 413.134003,97.742622 
	C418.621521,100.300621 421.381897,106.025337 420.718353,113.971230 
	C409.848267,113.971230 398.936249,113.971230 387.623016,113.787155 
z"/>
<path fill="#22A1D8" opacity="1.000000" stroke="none" 
	d="
M131.883270,102.002426 
	C122.645866,107.085182 112.949905,107.983940 103.035004,107.853271 
	C98.239372,107.790062 93.442223,107.842361 88.320755,107.842361 
	C88.320755,81.906448 88.320755,56.368668 88.320755,30.278646 
	C101.055695,30.352823 113.931435,28.583843 126.183815,33.405750 
	C141.923218,39.599972 151.896942,50.980217 152.544601,68.218452 
	C153.112473,83.333534 145.179398,94.371628 131.883270,102.002426 
z"/>
</svg>